<svg xmlns="http://www.w3.org/2000/svg" viewBox="0 0 60 60"><defs><style>.cls-1{fill:#54a651;}</style></defs><g id="Calque_2" data-name="Calque 2"><path class="cls-1" d="M29.78.68c12.44.29,21,9.05,22,19.89.49,5.13-1.29,9.65-3.53,14A143.25,143.25,0,0,1,33.12,57.39c-2,2.6-4.21,2.56-6.27,0C21.28,50.29,16,43,11.9,35a35.69,35.69,0,0,1-3.45-9.3C6.56,16,12.7,5.57,22.18,2.15A29.67,29.67,0,0,1,29.78.68ZM26.3,32.9A2.73,2.73,0,0,0,28,32.17c4.45-4.43,8.91-8.85,13.3-13.34A2.53,2.53,0,0,0,40.83,15c-1.32-1-2.61-.83-4.07.62-3.15,3.13-6.31,6.25-9.4,9.44-.8.82-1.31.85-2.08,0-1-1.1-2.09-2.1-3.16-3.12-1.42-1.34-3-1.43-4.2-.26s-1.21,2.72.21,4.17c2,2.05,4,4.05,6.05,6.07A3.65,3.65,0,0,0,26.3,32.9Z"/></g></svg>