<svg xmlns="http://www.w3.org/2000/svg" viewBox="0 0 150 40"><defs><style>.cls-1{fill:#ff1d25;}.cls-2{fill:#534741;}</style></defs><g id="Calque_2" data-name="Calque 2"><path class="cls-1" d="M1.55,17H4.87v2.08a5.35,5.35,0,0,1,4.35-2.54,7,7,0,0,1,3,.79l-1.57,3a3.44,3.44,0,0,0-1.95-.65A3.24,3.24,0,0,0,6,20.92c-.55.74-1.11,2-1.11,5.18V36.23H1.55Z"/><path class="cls-1" d="M31.13,31.33a11.66,11.66,0,0,1-2.36,3.09,9.33,9.33,0,0,1-6.38,2.36c-4.62,0-9.47-2.91-9.47-10,0-5.73,3.51-10.17,9.29-10.17a8.57,8.57,0,0,1,7.25,3.51,12.84,12.84,0,0,1,1.81,7.21H16.34c0,4,2.77,6.52,6.1,6.52a5.86,5.86,0,0,0,3.93-1.38,7.58,7.58,0,0,0,2-2.64Zm-3.28-6.8a5.75,5.75,0,0,0-5.64-5,5.83,5.83,0,0,0-5.64,5Z"/><path class="cls-1" d="M44.25,21.48a2.93,2.93,0,0,0-2.68-1.94,2.12,2.12,0,0,0-2.31,2.17c0,1.39.93,1.8,3.1,2.73,2.77,1.15,4.07,2,4.81,3a4.52,4.52,0,0,1,1,3.09c0,4-2.91,6.29-6.61,6.29a6.86,6.86,0,0,1-6.7-4.9l2.87-1.2c.37,1,1.48,3.14,3.88,3.14a3,3,0,0,0,3.14-3.05c0-1.8-1.29-2.4-3.09-3.19-2.32-1-3.79-1.76-4.67-2.82a4.16,4.16,0,0,1-.88-2.82c0-3.37,2.36-5.36,5.59-5.36A5.52,5.52,0,0,1,47,20.05Z"/><path class="cls-1" d="M69.43,19.77V17H71.7V36.23H69.43V19.77Z"/><path class="cls-2" d="M78.91,17l5.73,13L90.38,17h3.69L84.64,37.47,75.21,17Z"/><path class="cls-2" d="M114.6,31.33a11.66,11.66,0,0,1-2.36,3.09,9.33,9.33,0,0,1-6.38,2.36c-4.62,0-9.48-2.91-9.48-10,0-5.73,3.52-10.17,9.29-10.17a8.58,8.58,0,0,1,7.26,3.51,12.83,12.83,0,0,1,1.8,7.21H99.8c0,4,2.78,6.52,6.11,6.52a5.81,5.81,0,0,0,3.92-1.38,7.62,7.62,0,0,0,2-2.64Zm-3.29-6.8a5.74,5.74,0,0,0-5.64-5,5.81,5.81,0,0,0-5.63,5Z"/><path class="cls-2" d="M123.15,2.53v33.7h-3.33V2.53Z"/><path class="cls-1" d="M61,16.56A10.08,10.08,0,1,0,71,26.64,10.07,10.07,0,0,0,61,16.56ZM69.1,26.5H63.49A2.5,2.5,0,0,0,62.85,25l4-4A8.14,8.14,0,0,1,69.1,26.5ZM63,26.64s0,.09,0,.13a2,2,0,0,1-.48,1.16,1.89,1.89,0,0,1-.2.2,2,2,0,0,1-1.16.48h-.27l-1.16-.48a1.89,1.89,0,0,1-.2-.2A2,2,0,0,1,59,26.77s0-.09,0-.13,0-.1,0-.14a2,2,0,0,1,.48-1.16,1.89,1.89,0,0,1,.2-.2,2,2,0,0,1,1.16-.48h.27a2,2,0,0,1,1.16.48,1.89,1.89,0,0,1,.2.2,2.05,2.05,0,0,1,.48,1.16S63,26.59,63,26.64Zm-2.12,8.13a8.1,8.1,0,0,1-5.52-2.29l4-4a2.5,2.5,0,0,0,1.55.64Zm.27-5.61a2.52,2.52,0,0,0,1.55-.64l4,4a8.14,8.14,0,0,1-5.52,2.29Zm0-10.66a8.14,8.14,0,0,1,5.52,2.29l-4,4a2.52,2.52,0,0,0-1.55-.64Zm-.27,5.61a2.5,2.5,0,0,0-1.55.64l-4-4a8.12,8.12,0,0,1,5.52-2.29ZM55.12,21l4,4a2.5,2.5,0,0,0-.64,1.55H52.83A8.12,8.12,0,0,1,55.12,21Zm-2.29,5.79h5.61a2.5,2.5,0,0,0,.64,1.55l-4,4A8.12,8.12,0,0,1,52.83,26.77Zm14,5.52-4-4a2.5,2.5,0,0,0,.64-1.55H69.1A8.12,8.12,0,0,1,66.81,32.29Z"/><path class="cls-2" d="M138.38,16.56a10.08,10.08,0,1,0,10.07,10.08A10.07,10.07,0,0,0,138.38,16.56Zm8.13,9.94h-5.6a2.5,2.5,0,0,0-.64-1.55l4-4A8.08,8.08,0,0,1,146.51,26.5Zm-6.14.14s0,.09,0,.13a2,2,0,0,1-.48,1.16l-.2.2a2,2,0,0,1-1.16.48h-.28l-1.15-.48a1.89,1.89,0,0,1-.2-.2,2,2,0,0,1-.48-1.16s0-.09,0-.13,0-.1,0-.14a2,2,0,0,1,.48-1.16,1.89,1.89,0,0,1,.2-.2,2,2,0,0,1,1.15-.48h.28a2,2,0,0,1,1.16.48l.2.2a2.05,2.05,0,0,1,.48,1.16S140.37,26.59,140.37,26.64Zm-2.13,8.13a8.1,8.1,0,0,1-5.51-2.29l4-4a2.49,2.49,0,0,0,1.54.64Zm.28-5.61a2.52,2.52,0,0,0,1.55-.64l4,4a8.1,8.1,0,0,1-5.51,2.29Zm0-10.66A8.14,8.14,0,0,1,144,20.79l-4,4a2.52,2.52,0,0,0-1.55-.64Zm-.28,5.61a2.49,2.49,0,0,0-1.54.64l-4-4a8.1,8.1,0,0,1,5.51-2.29ZM132.53,21l4,4a2.44,2.44,0,0,0-.64,1.55h-5.61A8.16,8.16,0,0,1,132.53,21Zm-2.28,5.79h5.61a2.5,2.5,0,0,0,.64,1.55l-4,4A8.16,8.16,0,0,1,130.25,26.77Zm14,5.52-4-4a2.5,2.5,0,0,0,.64-1.55h5.6A8.07,8.07,0,0,1,144.23,32.29Z"/></g></svg>